PathFileType	4	(X/Y/Z)	Patient4_TMGait_0pt6_02_right_05.trc.trc
DataRate	CameraRate	NumFrames	NumMarkers	Units	OrigDataRate	OrigDataStartFrame	OrigNumFrames
85.889570552147	85.889570552147	7	33	mm	85.889570552147	53	       141
Frame#	Time	Sacral			L.Shoulder			Chest			R.Shoulder			Neck			R.ASIS			L.ASIS			R.Thigh.Superior			R.Thigh.Lateral			R.Thigh.Inferior			R.Patella			L.Thigh.Superior			L.Thigh.Lateral			L.Thigh.Inferior			L.Patella			L.Shank.Superior			L.Shank.Lateral			L.Shank.Inferior			R.Shank.Superior			R.Shank.Lateral			R.Shank.Inferior			R.Heel			R.Midfoot.Superior			R.Midfoot.Lateral			R.Toe			L.Heel			L.Midfoot.Lateral			L.Midfoot.Superior			L.Toe			L.Elbow			L.Wrist			R.Elbow			R.Wrist			
		X1	Y1	Z1	X2	Y2	Z2	X3	Y3	Z3	X4	Y4	Z4	X5	Y5	Z5	X6	Y6	Z6	X7	Y7	Z7	X8	Y8	Z8	X9	Y9	Z9	X10	Y10	Z10	X11	Y11	Z11	X12	Y12	Z12	X13	Y13	Z13	X14	Y14	Z14	X15	Y15	Z15	X16	Y16	Z16	X17	Y17	Z17	X18	Y18	Z18	X19	Y19	Z19	X20	Y20	Z20	X21	Y21	Z21	X22	Y22	Z22	X23	Y23	Z23	X24	Y24	Z24	X25	Y25	Z25	X26	Y26	Z26	X27	Y27	Z27	X28	Y28	Z28	X29	Y29	Z29	X30	Y30	Z30	X31	Y31	Z31	X32	Y32	Z32	X33	Y33	Z33	

53	6.095428571429	696.436646599353	1012.281490681077	540.748504839764	852.415388548864	1445.029526079796	362.710322900893	971.103845147514	1373.054223057522	511.457900292843	902.004617261748	1440.914805417662	693.898265479698	852.544482331739	1501.591683379307	519.028699807937	925.778359403263	949.933191299133	648.065731800179	902.129548969542	967.593673432935	375.253511189633	950.387120421639	741.919066607055	621.936743665358	858.826064773150	637.356418581179	677.619746832647	933.882656343342	581.443390693261	600.129696051433	926.896729228087	495.412478651077	604.255876315942	990.803249362570	792.334656083405	399.454130844934	949.632779922012	664.130703095509	319.533541773081	1060.665899257290	608.271953582807	372.248556643447	1081.151150562686	522.415923804234	363.358974559160	1027.872108171847	447.894364404360	361.227677223294	896.871201798577	375.321118880807	321.309970672488	917.179452112471	247.372782135899	376.731440457873	899.162583254139	407.649105088978	606.549976688295	823.780517160672	302.118393322312	659.660101789276	871.819391567610	209.467713931795	595.872244903939	740.287534813608	43.783882850193	551.077938837455	911.582628279326	98.315367449828	595.024034251048	821.729031567564	36.386571492490	627.821491406946	1029.835619281501	44.485341280683	622.551735634976	749.444800295630	139.816857193623	426.205153473312	809.914184394612	112.008472644937	340.403264596578	911.432000503513	143.223954705694	355.649095962399	1010.200118832012	53.593504501508	317.546588260800	760.773153924264	1100.590619151343	252.690585500721	774.921239055652	841.644617414535	242.650807788503	950.735423303835	1102.006250639243	823.001760992427	1196.983306610840	1035.479771151712	804.204911662907	
54	6.107071428571	695.666996447329	1012.597413835881	541.016949498857	851.891992989170	1445.309856349868	363.141249123835	970.980727850908	1372.828187552714	511.353351077213	902.715413257116	1440.685435513133	694.130887352323	852.421456488405	1501.539336696989	519.594685493663	924.997373874033	949.667516545841	647.820118615067	900.952479678421	967.821933121419	375.074086368614	947.785044404273	741.302627754144	621.201213020963	855.602529356539	637.310361911281	677.422343661661	929.795037036418	580.877352700462	599.767189253607	922.088792970534	494.971169945320	603.956690908287	989.748285315961	793.166867870901	399.601785330396	949.589556535832	664.835087540765	319.288962962934	1060.134945385124	609.374045676857	373.070821858260	1081.974448508702	525.150243923853	363.969310116382	1032.147213887748	449.855989368877	360.685313634520	905.782504281646	370.333793140019	319.565504409490	933.547721959663	243.102025023878	373.955190289225	893.966254732379	407.331607810683	606.262358148527	818.142463577746	302.178806832880	659.488651177911	865.575722689181	209.252811548073	595.672939197340	733.322332225735	43.843211659464	551.068410129348	904.676704145005	98.298910192392	595.133125495816	814.703918617163	36.399349171349	627.741800353030	1022.811322048735	44.297819801903	622.650332829636	772.545080577165	125.449569144570	422.075419719528	834.685906907971	101.904030980967	336.267512695449	934.134794285343	138.881537873777	352.070785800825	1038.058524010975	55.446607337219	313.672112906755	753.362835615275	1102.962311798686	254.094266195481	760.959962219600	843.667658952951	245.220661449600	956.019145143573	1102.707295575721	822.497863212296	1204.466602786986	1048.147291820004	800.629429558012	
55	6.118714285714	694.868204897558	1012.811273326269	541.177704035392	851.450139687164	1445.488736662932	363.453738721855	970.891219844938	1372.466424702218	511.145690319361	903.408679615092	1440.270736308398	694.259046597645	852.332137349560	1501.323100382681	520.099135953368	924.220275595301	949.268928133116	647.423563549439	899.721647674416	967.874772740534	374.757100266407	945.241885831573	740.579203390721	620.380234532127	852.430466504611	637.176482613164	677.146621033680	925.699748826307	580.239801711681	599.256150697903	917.280168191592	494.475990413964	603.495805894784	988.348341758276	793.442986459428	399.615934708774	948.960801944690	665.076051410085	318.991157434930	1058.795239511351	609.783673288403	374.095237096796	1081.941604536157	527.372058253180	364.772713044439	1035.662340532187	451.599247170206	360.255009932197	914.569170245386	365.231232421679	317.734782462488	949.853225262833	239.208791478074	371.233426968632	888.786558272434	406.942641996588	605.842903764259	812.573729154412	302.164410260686	659.260487542829	859.335355103401	208.978563646467	595.374465200330	726.358681802254	43.861571332069	551.046825618868	897.708440300191	98.219998977908	595.110041557522	807.672691296236	36.409296112794	627.646446710338	1015.780772234008	44.109215398747	622.732430709829	796.316632356359	111.661211875511	417.788434810806	860.065295850426	92.536854000555	332.115621478263	957.005451672354	135.246397007764	348.628124305712	1065.856682690349	58.392265591103	310.209818986488	746.557710473194	1105.211407942912	255.543913989869	747.666958278077	845.751267282326	247.695479692285	961.096107794869	1103.241481537792	821.779030747798	1211.088143463048	1060.771195685061	796.689605770008	
56	6.130357142857	694.043609955847	1012.925820139185	541.244262283413	851.093725760849	1445.546654185177	363.632635340075	970.838115648598	1371.964575838807	510.827689967680	904.094765894326	1439.687757665230	694.268215612763	852.278843818822	1500.947826467309	520.515953775146	923.454698193749	948.740279764503	646.890137093370	898.431733836318	967.754092110249	374.313270605262	942.765824509876	739.749062814726	619.495659761198	849.307291462043	636.952019221251	676.789580239186	921.603756578358	579.526755310647	598.600899885402	912.485449413765	493.922614669995	602.872259970889	986.611063743740	793.210252605044	399.499962089206	947.777355785522	664.909944057661	318.591597426643	1056.727524571208	609.590799186326	375.225566637580	1081.150684783504	529.140191516211	365.684746310849	1038.475158955604	453.172011379634	359.919215043107	923.232325952339	360.176355805652	315.822313995303	965.937971762168	235.875130252760	368.652655884334	883.627926475008	406.478515897191	605.292585499913	807.075312503245	302.075725583949	658.976097069364	853.099058036496	208.644732090282	594.977408338760	719.387445496839	43.836456818202	551.013243346127	890.676457032971	98.084271111984	594.964435393997	800.634120398138	36.417044566097	627.544695974767	1008.744151233784	43.927453967403	622.798668518731	820.469113401298	98.822548133182	413.451799001992	885.784185968829	84.168776323756	328.093295127628	979.798577761029	132.495634970575	345.462546119159	1093.289008436481	62.507360688966	307.397858373215	740.368075724065	1107.268732987262	256.998718891891	735.111166216273	847.826905521247	250.009657367704	965.966359427601	1103.613513407704	820.846808573273	1216.835112920096	1073.279639936495	792.422733929189	
57	6.142000000000	693.201160749656	1012.944258828504	541.233957269746	850.817257249363	1445.469495612186	363.666603843046	970.819816842834	1371.324904817935	510.392570131067	904.783421207606	1438.962252012552	694.144776896974	852.255786167028	1500.426769289721	520.812449950335	922.712053886916	948.088048690323	646.233142028686	897.082200334009	967.472247836182	373.751434291938	940.361103595642	738.816751892881	618.558518080676	846.237471560193	636.637088092675	676.345955016026	917.521185533816	578.739055724735	597.804642841114	907.726067730005	493.306988050811	602.087369826267	984.555857785807	792.537257728848	399.260484165818	946.090245067822	664.407179214433	318.044616814681	1054.045595593082	608.909678217295	376.345843441805	1079.718858844462	530.526057068500	366.609216080685	1040.657251132195	454.617250278804	359.650045869872	931.734669719481	355.319113559077	313.852723849333	981.613045984682	233.233775838358	366.290746428184	878.500282901932	405.938912177188	604.616663138327	801.649564639709	301.916310037061	658.635592928716	846.868654295492	208.251858246495	594.485629492382	712.401411406477	43.768173780190	550.968390774226	883.584460816139	97.901820099112	594.715436704846	793.586507624888	36.422781472047	627.444810925723	1001.701424841027	43.761030633677	622.850025072074	844.639031124474	87.244330619308	409.197824394004	911.492975176776	76.984141686798	324.351860819257	1002.220212018735	130.730567057930	342.694367797834	1120.008788551395	67.758940195446	305.418963642644	734.799758530885	1109.074085194360	258.408590942789	723.366015165331	849.825098577597	252.103165080862	970.624294499194	1103.833761238663	819.701931503381	1221.703334444166	1085.594581979595	787.869513980567	
58	6.153642857143	692.353108736776	1012.869262046314	541.165564419104	850.604522127725	1445.250174703638	363.549652803906	970.829697268219	1370.556614511762	509.834091681580	905.482291420521	1438.125758502332	693.877433178925	852.250168269257	1499.780065384953	520.954198093802	922.007132652610	947.322356343445	645.463397353534	895.677849537655	967.049670326479	373.078112308933	938.031340776726	737.791526188435	617.567008718166	843.236522641362	636.235011196606	675.809257144278	913.476309518444	577.883123206863	596.869297821912	903.031302888100	492.625821525370	601.145081237744	982.218941685422	791.509196085919	398.904339973816	943.970956983256	663.643755880979	317.317803412568	1050.894181798780	607.867942332896	377.332090153486	1077.778286150248	531.603340797972	367.446217389443	1042.287850715479	455.965892286762	359.409345751068	939.990190286893	350.786906311129	311.877306902441	996.661185679784	231.355282635138	364.208916260312	873.420474805862	405.326608602031	603.824548799018	796.301768166711	301.692825726039	658.239403716880	840.647903830766	207.801711757374	593.906663961951	705.396125839729	43.660625096787	550.914475656754	876.441305812504	97.686111033831	594.389028516300	786.528234415733	36.426174896046	627.352952213809	994.652642373805	43.617621214250	622.887508102606	868.401330285120	77.156350281217	405.184561791384	936.759481017560	71.078005603547	321.038062919116	1023.928888260609	129.966287604211	340.406875414174	1145.625520441605	73.998796839057	304.359656325884	729.855324604966	1110.578825204547	259.717816073945	712.508381468471	851.677633677083	253.923712266980	975.059393068152	1103.916596716322	818.346861863874	1225.699203916835	1097.632772682982	783.072929664579	
59	6.165285714286	691.515410375485	1012.702709942086	541.055827061365	850.428916165973	1444.889500256721	363.281749160485	970.856044835071	1369.675747864990	509.146935890250	906.195221724751	1437.212360146507	693.458317320703	852.244816853824	1499.032213563306	520.911566819581	921.357506171557	946.457314665683	644.588195787354	894.229476562112	966.512037363912	372.297335066738	935.783233293279	736.687324261696	616.506935642188	840.332655675307	635.752328208348	675.173051055616	909.503998407922	576.969944215833	595.795704601619	898.437792645354	491.877162345756	600.052386477855	979.657392064178	790.222262065489	398.435226485328	941.508696917864	662.692503326655	316.401906821340	1047.441778890309	606.594441010051	378.066293427454	1075.471016318633	532.438159312545	368.101448245394	1043.447247517765	457.230826047430	359.152087818886	947.861945779897	346.675059347735	309.975385503565	1010.843537717834	230.240028992100	362.447296845652	868.412270805709	404.646578820814	602.928824841027	791.041292505674	301.415017222197	657.789167795454	834.443419039843	207.298007634838	593.251599786843	698.370139011217	43.521677158745	550.855229261188	869.260330274087	97.452216525390	594.014532068610	779.458438168595	36.426674085289	627.272822008075	987.598401714282	43.502635821611	622.911915340898	891.287231071971	68.691796317737	401.591276886409	961.078672868453	66.451673535872	318.283089940988	1044.544056651240	130.128379509235	338.636759299749	1169.711349008013	80.968322467040	304.184031223782	725.533152803932	1111.747988291971	260.869670950664	702.616908956742	853.320083651942	255.427811026048	979.257687472977	1103.878656791438	816.787733908854	1228.841370210028	1109.307317850143	778.076941805349	
